<?xml version="1.0" encoding="utf-8"?>
<!-- Generator: Adobe Illustrator 17.0.0, SVG Export Plug-In . SVG Version: 6.00 Build 0)  -->
<!DOCTYPE svg PUBLIC "-//W3C//DTD SVG 1.1//EN" "http://www.w3.org/Graphics/SVG/1.1/DTD/svg11.dtd">
<svg version="1.1" id="图层_1" xmlns="http://www.w3.org/2000/svg" xmlns:xlink="http://www.w3.org/1999/xlink" x="0px" y="0px"
	 width="300px" height="300px" viewBox="0 0 300 300" enable-background="new 0 0 300 300" xml:space="preserve">
<rect x="-0.009" y="-0.009" width="300.019" height="300.019"/>
<g>
	<path fill="#FF6600" d="M71.944,150.603h6.849l-2.106,7.859c-0.209,0.783,0.158,1.174,1.104,1.174c0.913,0,1.475-0.391,1.682-1.166
		l1.086-4.052c0.332-1.239-0.109-2.698-1.316-4.37c-2.374-3.098-3.804-5.185-4.303-6.245c-0.496-1.068-0.575-2.234-0.232-3.514
		l1.029-3.84c1.188-4.435,4.693-6.652,10.506-6.652c5.21,0,7.269,2.022,6.185,6.065l-1.588,5.927h-6.848l1.682-6.278
		c0.181-0.677-0.11-1.019-0.876-1.019c-0.897,0-1.518,0.644-1.863,1.932l-0.449,2.226c-0.341,1.272,0.112,2.747,1.355,4.435
		c2.341,3.008,3.785,5.103,4.322,6.294c0.535,1.198,0.598,2.544,0.192,4.06l-1.169,4.361c-1.219,4.549-4.739,6.824-10.568,6.824
		c-5.617,0-7.875-2.071-6.765-6.212L71.944,150.603z"/>
	<path fill="#FF6600" d="M102.187,164.332h-4.296c-3.066,0-4.783-0.465-5.14-1.386c-0.354-0.929-0.18-2.707,0.526-5.34l4.542-16.949
		h-3.033l1.088-4.06h3.033l1.494-5.576h6.799l-1.494,5.576h3.677l-1.088,4.06h-3.677l-4.533,16.917
		c-0.218,0.815-0.12,1.361,0.284,1.647c0.415,0.277,1.438,0.416,3.076,0.416L102.187,164.332z"/>
	<path fill="#FF6600" d="M121.287,164.332c-3.196-1.281-6.544,0.391-10.483,0.391c-3.709,0-5.179-1.451-4.402-4.354l1.492-5.568
		c0.332-1.239,1.071-2.323,2.225-3.253c1.144-0.921,3.264-2.079,6.358-3.465c1.788-0.799,2.748-1.435,2.875-1.908l1.101-4.109
		c0.242-0.905-0.026-1.362-0.809-1.362c-0.897,0-1.634,1.109-2.226,3.318c-0.107,0.399-0.248,0.986-0.409,1.769
		c-0.145,0.783-0.269,1.369-0.376,1.769h-6.555l1.485-5.544c1.003-3.742,4.212-5.617,9.617-5.617c5.063,0,7.068,1.949,6.022,5.854
		L121.287,164.332L121.287,164.332z M115.875,159.155l1.916-7.15c-1.668,0.383-2.639,1.084-2.911,2.103l-1.352,5.047
		c-0.225,0.84,0.069,1.264,0.884,1.264C115.161,160.419,115.65,159.995,115.875,159.155z"/>
	<path fill="#FF6600" d="M138.088,164.332h-4.296c-3.066,0-4.783-0.465-5.14-1.386c-0.354-0.929-0.18-2.707,0.526-5.34l4.542-16.949
		h-3.033l1.088-4.06h3.033l1.494-5.576h6.799l-1.494,5.576h3.677l-1.088,4.06h-3.677l-4.533,16.917
		c-0.218,0.815-0.12,1.361,0.284,1.647c0.415,0.277,1.438,0.416,3.076,0.416L138.088,164.332z"/>
	<polygon fill="#FF6600" points="147.797,164.332 140.997,164.332 148.429,136.597 155.228,136.597 	"/>
	<path fill="#FF6600" d="M152.324,158.87l4.452-16.615c1.046-3.905,4.259-5.854,9.648-5.854c2.087,0,3.791,0.457,5.13,1.361
		c1.337,0.913,1.75,2.323,1.232,4.256l-4.579,17.088c-1.003,3.742-4.13,5.617-9.372,5.617
		C153.446,164.724,151.278,162.775,152.324,158.87L152.324,158.87z M161.434,159.009l4.54-16.941
		c0.242-0.905-0.018-1.362-0.793-1.362c-0.791,0-1.313,0.457-1.555,1.362l-4.54,16.941c-0.251,0.937,0.022,1.41,0.813,1.41
		C160.673,160.419,161.183,159.946,161.434,159.009z"/>
	<path fill="#FF6600" d="M185.866,164.332h-6.799l5.966-22.265c0.225-0.84-0.053-1.264-0.836-1.264s-1.283,0.408-1.499,1.214
		l-5.979,22.314h-6.799l7.432-27.736c3.414,1.63,6.98-0.196,11.058-0.196c1.223,0,2.267,0.334,3.123,1.003
		c0.856,0.668,1.108,1.647,0.76,2.943L185.866,164.332z"/>
	<path fill="#FF6600" d="M196.047,163.696l-1.743,6.506h-6.799l9.004-33.605c3.684,1.996,6.245-0.196,9.738-0.196
		c1.549,0,2.871,0.391,3.974,1.174c1.105,0.775,1.464,1.899,1.071,3.367l-5.341,19.933c-0.312,1.166-1.042,2.095-2.184,2.796
		s-2.401,1.052-3.763,1.052C198.103,164.724,196.784,164.381,196.047,163.696L196.047,163.696z M199.611,159.155l4.605-17.186
		c0.225-0.84-0.044-1.264-0.819-1.264c-0.791,0-1.304,0.424-1.529,1.264l-4.618,17.235c-0.216,0.807,0.074,1.215,0.865,1.215
		C198.89,160.419,199.386,159.995,199.611,159.155z"/>
	<path fill="#FF6600" d="M228.325,148.867h-6.799l1.822-6.799c0.242-0.905-0.018-1.362-0.793-1.362
		c-0.791,0-1.313,0.457-1.555,1.362l-4.54,16.941c-0.251,0.937,0.022,1.41,0.813,1.41c0.775,0,1.282-0.465,1.533-1.402l1.787-6.669
		h6.799l-1.811,6.759c-1.003,3.742-4.13,5.617-9.372,5.617c-5.389,0-7.557-1.949-6.511-5.853l4.452-16.615
		c1.046-3.905,4.259-5.854,9.648-5.854c5.242,0,7.367,1.867,6.364,5.609L228.325,148.867z"/>
	<path fill="#FF6600" d="M148.854,135.008c4.413-0.529,8.912-1.611,13.143-2.381c2.028-0.369,11.523-2.448,12.331-2.399
		l-24.041-0.077L148.854,135.008z"/>
</g>
</svg>
